<?xml version="1.0" encoding="UTF-8" standalone="no"?>
<svg
   xmlns:dc="http://purl.org/dc/elements/1.1/"
   xmlns:cc="http://creativecommons.org/ns#"
   xmlns:rdf="http://www.w3.org/1999/02/22-rdf-syntax-ns#"
   xmlns:svg="http://www.w3.org/2000/svg"
   xmlns="http://www.w3.org/2000/svg"
   viewBox="0 0 559.69202 198.39732"
   height="198.39732"
   width="559.69202"
   xml:space="preserve"
   id="svg2"
   version="1.1"><metadata
     id="metadata8"><rdf:RDF><cc:Work
         rdf:about=""><dc:format>image/svg+xml</dc:format><dc:type
           rdf:resource="http://purl.org/dc/dcmitype/StillImage" /></cc:Work></rdf:RDF></metadata><defs
     id="defs6"><clipPath
       id="clipPath26"
       clipPathUnits="userSpaceOnUse"><path
         id="path24"
         d="M 0,148.798 H 419.769 V 0 H 0 Z" /></clipPath></defs><g
     transform="matrix(1.3333333,0,0,-1.3333333,0,198.39733)"
     id="g10"><g
       transform="translate(94.8951,127.1898)"
       id="g12"><path
         id="path14"
         style="fill:#04044c;fill-opacity:1;fill-rule:nonzero;stroke:none"
         d="m 0,0 37.204,-63.755 6.036,10.743 -24.586,42.386 H 30.935 L 55.524,-52.763 12.092,-127.19 h 37.142 l 24.964,43.161 0.022,-0.774 24.735,-42.387 h 11.981 l -37.321,64.326 -30.982,-53.7 H 30.747 L 67.757,-52.763 37.139,0 Z" /></g><g
       transform="translate(192.9996,148.7979)"
       id="g16"><path
         id="path18"
         style="fill:#009fe3;fill-opacity:1;fill-rule:nonzero;stroke:none"
         d="m 0,0 -24.963,-43.161 -0.023,0.774 L -49.721,0 h -11.98 l 37.321,-64.326 30.982,53.699 h 11.887 l -37.012,-63.799 30.618,-52.764 h 37.14 L 12.03,-63.435 5.994,-74.178 30.581,-116.563 H 18.3 L -6.289,-74.426 37.143,0 Z" /></g><g
       id="g20"><g
         clip-path="url(#clipPath26)"
         id="g22"><g
           transform="translate(34.4282,81.2023)"
           id="g28"><path
             id="path30"
             style="fill:#04044c;fill-opacity:1;fill-rule:nonzero;stroke:none"
             d="m 0,0 c 2.669,3.874 7.144,6.887 14.633,6.887 14.201,0 19.796,-10.674 19.796,-18.162 V -36.924 H 24.1 v 25.391 c 0,6.111 -4.475,8.865 -9.467,8.865 -4.993,0 -9.468,-2.754 -9.468,-8.865 V -36.924 H -5.164 v 25.391 c 0,6.111 -4.475,8.865 -9.468,8.865 -4.992,0 -9.468,-2.754 -9.468,-8.865 v -25.391 h -10.328 v 25.649 c 0,7.488 5.594,18.162 19.796,18.162 C -7.144,6.887 -2.668,3.874 0,0" /></g><g
           transform="translate(95.0269,78.4486)"
           id="g32"><path
             id="path34"
             style="fill:#04044c;fill-opacity:1;fill-rule:nonzero;stroke:none"
             d="m 0,0 c -7.23,0 -11.965,-4.734 -11.965,-12.738 0,-8.005 4.735,-12.739 11.965,-12.739 7.144,0 11.878,4.734 11.878,12.739 C 11.878,-4.734 7.144,0 0,0 M 22.206,-12.824 V -34.171 H 11.878 v 4.132 c -2.066,-2.668 -6.456,-4.907 -12.739,-4.907 -12.481,0 -21.432,8.953 -21.432,22.293 0,13.255 8.951,22.12 22.206,22.12 13.342,0 22.293,-8.951 22.293,-22.291" /></g><path
           id="path36"
           style="fill:#009fe3;fill-opacity:1;fill-rule:nonzero;stroke:none"
           d="m 234.729,87.314 h 10.328 V 44.278 h -10.328 z m 5.164,18.161 c 3.185,0 5.681,-2.582 5.681,-5.681 0,-3.27 -2.496,-5.766 -5.681,-5.766 -3.184,0 -5.68,2.496 -5.68,5.766 0,3.099 2.496,5.681 5.68,5.681" /><g
           transform="translate(284.2202,81.2023)"
           id="g38"><path
             id="path40"
             style="fill:#009fe3;fill-opacity:1;fill-rule:nonzero;stroke:none"
             d="m 0,0 c 2.669,3.874 7.144,6.887 14.633,6.887 14.201,0 19.796,-10.674 19.796,-18.162 V -36.924 H 24.1 v 25.391 c 0,6.111 -4.475,8.865 -9.467,8.865 -4.993,0 -9.468,-2.754 -9.468,-8.865 V -36.924 H -5.164 v 25.391 c 0,6.111 -4.475,8.865 -9.468,8.865 -4.992,0 -9.468,-2.754 -9.468,-8.865 v -25.391 h -10.328 v 25.649 c 0,7.488 5.594,18.162 19.796,18.162 C -7.144,6.887 -2.668,3.874 0,0" /></g><path
           id="path42"
           style="fill:#009fe3;fill-opacity:1;fill-rule:nonzero;stroke:none"
           d="m 323.817,87.314 h 10.328 V 44.278 h -10.328 z m 5.164,18.161 c 3.185,0 5.681,-2.582 5.681,-5.681 0,-3.27 -2.496,-5.766 -5.681,-5.766 -3.184,0 -5.68,2.496 -5.68,5.766 0,3.099 2.496,5.681 5.68,5.681" /><g
           transform="translate(338.4496,87.314)"
           id="g44"><path
             id="path46"
             style="fill:#009fe3;fill-opacity:1;fill-rule:nonzero;stroke:none"
             d="M 0,0 H 34.428 V -6.885 L 14.46,-33.568 h 19.968 v -9.468 H 0 v 6.885 L 20.054,-9.469 H 0 Z" /></g><g
           transform="translate(396.8944,78.4486)"
           id="g48"><path
             id="path50"
             style="fill:#009fe3;fill-opacity:1;fill-rule:nonzero;stroke:none"
             d="m 0,0 c -7.23,0 -11.965,-4.734 -11.965,-12.738 0,-8.005 4.735,-12.739 11.965,-12.739 7.144,0 11.878,4.734 11.878,12.739 C 11.878,-4.734 7.144,0 0,0 M 22.206,-12.824 V -34.171 H 11.878 v 4.132 c -2.066,-2.668 -6.456,-4.907 -12.739,-4.907 -12.481,0 -21.432,8.953 -21.432,22.293 0,13.255 8.951,22.12 22.206,22.12 13.342,0 22.293,-8.951 22.293,-22.291" /></g><g
           transform="translate(252.1783,23.482)"
           id="g52"><path
             id="path54"
             style="fill:#009fe3;fill-opacity:1;fill-rule:nonzero;stroke:none"
             d="m 0,0 0.523,1.102 c 0.735,-0.665 1.992,-1.144 3.263,-1.144 1.71,0 2.445,0.663 2.445,1.525 0,2.416 -5.991,0.891 -5.991,4.563 0,1.526 1.187,2.826 3.786,2.826 1.159,0 2.359,-0.311 3.179,-0.876 L 6.739,6.866 C 5.877,7.416 4.902,7.671 4.026,7.671 2.345,7.671 1.625,6.964 1.625,6.103 1.625,3.686 7.614,5.198 7.614,1.568 7.614,0.056 6.4,-1.243 3.786,-1.243 2.274,-1.243 0.791,-0.735 0,0" /></g><g
           transform="translate(267.6647,26.0949)"
           id="g56"><path
             id="path58"
             style="fill:#009fe3;fill-opacity:1;fill-rule:nonzero;stroke:none"
             d="m 0,0 c 0,1.597 -1.075,2.628 -2.516,2.628 -1.441,0 -2.528,-1.031 -2.528,-2.628 0,-1.595 1.087,-2.642 2.528,-2.642 C -1.075,-2.642 0,-1.595 0,0 m -6.415,0 c 0,2.233 1.654,3.815 3.899,3.815 2.247,0 3.886,-1.582 3.886,-3.815 0,-2.232 -1.639,-3.828 -3.886,-3.828 -2.245,0 -3.899,1.596 -3.899,3.828" /></g><path
           id="path60"
           style="fill:#009fe3;fill-opacity:1;fill-rule:nonzero;stroke:none"
           d="m 271.198,32.834 h 1.356 V 22.351 h -1.356 z" /><g
           transform="translate(282.4026,29.8387)"
           id="g62"><path
             id="path64"
             style="fill:#009fe3;fill-opacity:1;fill-rule:nonzero;stroke:none"
             d="m 0,0 v -7.487 h -1.285 v 1.13 c -0.552,-0.777 -1.484,-1.215 -2.543,-1.215 -1.936,0 -3.221,1.06 -3.221,3.264 V 0 h 1.356 v -4.153 c 0,-1.469 0.734,-2.204 2.02,-2.204 1.413,0 2.317,0.876 2.317,2.486 l 0,3.871 z" /></g><g
           transform="translate(290.5562,24.527)"
           id="g66"><path
             id="path68"
             style="fill:#009fe3;fill-opacity:1;fill-rule:nonzero;stroke:none"
             d="M 0,0 1.031,-0.65 C 0.438,-1.695 -0.664,-2.26 -1.993,-2.26 l -0.169,-0.622 c 0.82,-0.085 1.229,-0.55 1.229,-1.172 0,-0.792 -0.692,-1.286 -1.751,-1.286 -0.494,0 -0.904,0.099 -1.258,0.311 l 0.297,0.692 c 0.296,-0.169 0.607,-0.24 0.961,-0.24 0.537,0 0.791,0.212 0.791,0.565 0,0.324 -0.24,0.551 -0.806,0.551 H -3.08 l 0.325,1.258 c -1.908,0.31 -3.222,1.78 -3.222,3.771 0,2.233 1.654,3.815 3.957,3.815 1.341,0 2.458,-0.551 3.051,-1.597 L 0,3.122 c -0.481,0.735 -1.215,1.074 -2.035,1.074 -1.468,0 -2.571,-1.031 -2.571,-2.628 0,-1.624 1.103,-2.642 2.571,-2.642 0.82,0 1.554,0.339 2.035,1.074" /></g><g
           transform="translate(295.813,31.916)"
           id="g70"><path
             id="path72"
             style="fill:#009fe3;fill-opacity:1;fill-rule:nonzero;stroke:none"
             d="m 0,0 c -0.41,0 -0.692,-0.325 -0.72,-0.876 h -0.763 c 0.028,1.045 0.565,1.724 1.385,1.724 0.904,0 1.356,-0.961 1.879,-0.961 0.41,0 0.691,0.325 0.72,0.848 H 3.264 C 3.236,-0.269 2.699,-0.947 1.879,-0.947 0.975,-0.947 0.523,0 0,0 m 3.42,-5.821 c 0,1.597 -1.075,2.628 -2.516,2.628 -1.441,0 -2.528,-1.031 -2.528,-2.628 0,-1.595 1.087,-2.642 2.528,-2.642 1.441,0 2.516,1.047 2.516,2.642 m -6.415,0 c 0,2.233 1.654,3.815 3.899,3.815 2.247,0 3.886,-1.582 3.886,-3.815 0,-2.232 -1.639,-3.828 -3.886,-3.828 -2.245,0 -3.899,1.596 -3.899,3.828" /></g><g
           transform="translate(303.4297,26.618)"
           id="g74"><path
             id="path76"
             style="fill:#009fe3;fill-opacity:1;fill-rule:nonzero;stroke:none"
             d="M 0,0 H 4.804 C 4.663,1.258 3.716,2.147 2.402,2.147 1.102,2.147 0.142,1.272 0,0 M 6.075,-0.975 H 0 c 0.171,-1.314 1.229,-2.19 2.712,-2.19 0.877,0 1.612,0.297 2.163,0.905 L 5.623,-3.136 C 4.945,-3.927 3.914,-4.351 2.67,-4.351 c -2.415,0 -4.026,1.596 -4.026,3.828 0,2.218 1.596,3.815 3.758,3.815 2.161,0 3.702,-1.555 3.702,-3.857 0,-0.113 -0.014,-0.283 -0.029,-0.41" /></g><g
           transform="translate(310.7501,23.1432)"
           id="g78"><path
             id="path80"
             style="fill:#009fe3;fill-opacity:1;fill-rule:nonzero;stroke:none"
             d="M 0,0 0.565,1.074 C 1.201,0.621 2.218,0.296 3.193,0.296 c 1.258,0 1.78,0.382 1.78,1.017 0,1.681 -4.733,0.226 -4.733,3.208 0,1.341 1.201,2.245 3.123,2.245 0.975,0 2.077,-0.254 2.726,-0.677 L 5.51,5.015 C 4.832,5.452 4.084,5.608 3.349,5.608 2.162,5.608 1.583,5.17 1.583,4.577 1.583,2.811 6.329,4.252 6.329,1.341 6.329,-0.015 5.086,-0.877 3.095,-0.877 1.851,-0.877 0.621,-0.496 0,0" /></g><g
           transform="translate(330.5182,23.5804)"
           id="g82"><path
             id="path84"
             style="fill:#009fe3;fill-opacity:1;fill-rule:nonzero;stroke:none"
             d="m 0,0 v -1.229 h -7.177 v 9.89 h 6.979 V 7.431 H -5.765 V 4.394 h 4.959 V 3.193 H -5.765 V 0 Z" /></g><g
           transform="translate(338.5172,26.0949)"
           id="g86"><path
             id="path88"
             style="fill:#009fe3;fill-opacity:1;fill-rule:nonzero;stroke:none"
             d="m 0,0 c 0,1.597 -1.088,2.628 -2.516,2.628 -1.441,0 -2.528,-1.031 -2.528,-2.628 0,-1.595 1.087,-2.642 2.528,-2.642 C -1.088,-2.642 0,-1.595 0,0 M 1.341,6.739 V -3.744 H 0.042 v 1.187 c -0.607,-0.847 -1.569,-1.271 -2.67,-1.271 -2.19,0 -3.787,1.54 -3.787,3.828 0,2.289 1.597,3.815 3.787,3.815 1.059,0 1.992,-0.395 2.613,-1.201 v 4.125 z" /></g><g
           transform="translate(349.6934,29.8387)"
           id="g90"><path
             id="path92"
             style="fill:#009fe3;fill-opacity:1;fill-rule:nonzero;stroke:none"
             d="m 0,0 v -7.487 h -1.285 v 1.13 c -0.552,-0.777 -1.484,-1.215 -2.543,-1.215 -1.936,0 -3.221,1.06 -3.221,3.264 V 0 h 1.356 v -4.153 c 0,-1.469 0.734,-2.204 2.02,-2.204 1.413,0 2.317,0.876 2.317,2.486 l 0,3.871 z" /></g><g
           transform="translate(351.8714,26.0949)"
           id="g94"><path
             id="path96"
             style="fill:#009fe3;fill-opacity:1;fill-rule:nonzero;stroke:none"
             d="m 0,0 c 0,2.233 1.654,3.815 3.957,3.815 1.341,0 2.457,-0.551 3.051,-1.597 L 5.977,1.554 C 5.496,2.289 4.761,2.628 3.942,2.628 2.473,2.628 1.371,1.597 1.371,0 c 0,-1.624 1.102,-2.642 2.571,-2.642 0.819,0 1.554,0.339 2.035,1.074 l 1.031,-0.65 C 6.414,-3.263 5.298,-3.828 3.957,-3.828 1.654,-3.828 0,-2.232 0,0" /></g><g
           transform="translate(365.4923,24.6403)"
           id="g98"><path
             id="path100"
             style="fill:#009fe3;fill-opacity:1;fill-rule:nonzero;stroke:none"
             d="m 0,0 v 1.045 h -2.091 c -1.343,0 -1.724,-0.522 -1.724,-1.158 0,-0.749 0.622,-1.215 1.653,-1.215 1.017,0 1.822,0.466 2.162,1.328 M 1.356,2.232 V -2.289 H 0.07 V -1.3 c -0.452,-0.678 -1.285,-1.074 -2.457,-1.074 -1.697,0 -2.77,0.904 -2.77,2.205 0,1.2 0.777,2.189 3.009,2.189 L 0,2.02 v 0.269 c 0,1.143 -0.665,1.808 -2.006,1.808 -0.891,0 -1.795,-0.311 -2.374,-0.805 l -0.565,1.017 c 0.777,0.622 1.893,0.96 3.094,0.96 2.048,0 3.207,-0.988 3.207,-3.037" /></g><g
           transform="translate(368.9968,26.0949)"
           id="g102"><path
             id="path104"
             style="fill:#009fe3;fill-opacity:1;fill-rule:nonzero;stroke:none"
             d="m 0,0 c 0,2.233 1.654,3.815 3.957,3.815 1.341,0 2.458,-0.551 3.051,-1.597 L 5.977,1.554 C 5.496,2.289 4.761,2.628 3.942,2.628 2.473,2.628 1.371,1.597 1.371,0 c 0,-1.624 1.102,-2.642 2.571,-2.642 0.819,0 1.554,0.339 2.035,1.074 l 1.031,-0.65 C 6.415,-3.263 5.298,-3.828 3.957,-3.828 1.654,-3.828 0,-2.232 0,0" /></g><path
           id="path106"
           style="fill:#009fe3;fill-opacity:1;fill-rule:nonzero;stroke:none"
           d="m 378.041,29.839 h 1.356 v -7.487 h -1.356 z m -0.241,2.317 c 0,0.495 0.396,0.89 0.919,0.89 0.522,0 0.918,-0.382 0.918,-0.861 0,-0.509 -0.381,-0.904 -0.918,-0.904 -0.523,0 -0.919,0.381 -0.919,0.875" /><g
           transform="translate(387.9878,26.0949)"
           id="g108"><path
             id="path110"
             style="fill:#009fe3;fill-opacity:1;fill-rule:nonzero;stroke:none"
             d="m 0,0 c 0,1.597 -1.074,2.628 -2.514,2.628 -1.441,0 -2.529,-1.031 -2.529,-2.628 0,-1.595 1.088,-2.642 2.529,-2.642 C -1.074,-2.642 0,-1.595 0,0 m -6.414,0 c 0,2.233 1.654,3.815 3.9,3.815 2.246,0 3.885,-1.582 3.885,-3.815 0,-2.232 -1.639,-3.828 -3.885,-3.828 -2.246,0 -3.9,1.596 -3.9,3.828" /></g><g
           transform="translate(398.6283,26.6603)"
           id="g112"><path
             id="path114"
             style="fill:#009fe3;fill-opacity:1;fill-rule:nonzero;stroke:none"
             d="m 0,0 v -4.309 h -1.356 v 4.153 c 0,1.47 -0.735,2.191 -2.02,2.191 -1.441,0 -2.374,-0.862 -2.374,-2.487 v -3.857 h -1.356 v 7.487 h 1.3 V 2.049 c 0.55,0.763 1.512,1.2 2.699,1.2 C -1.285,3.249 0,2.204 0,0" /></g><g
           transform="translate(406.0059,24.6403)"
           id="g116"><path
             id="path118"
             style="fill:#009fe3;fill-opacity:1;fill-rule:nonzero;stroke:none"
             d="m 0,0 v 1.045 h -2.091 c -1.343,0 -1.724,-0.522 -1.724,-1.158 0,-0.749 0.622,-1.215 1.653,-1.215 1.017,0 1.822,0.466 2.162,1.328 M 1.356,2.232 V -2.289 H 0.07 V -1.3 c -0.452,-0.678 -1.285,-1.074 -2.457,-1.074 -1.697,0 -2.77,0.904 -2.77,2.205 0,1.2 0.777,2.189 3.009,2.189 L 0,2.02 v 0.269 c 0,1.143 -0.665,1.808 -2.006,1.808 -0.891,0 -1.795,-0.311 -2.374,-0.805 l -0.565,1.017 c 0.777,0.622 1.893,0.96 3.094,0.96 2.048,0 3.207,-0.988 3.207,-3.037" /></g><path
           id="path120"
           style="fill:#009fe3;fill-opacity:1;fill-rule:nonzero;stroke:none"
           d="m 410.16,29.839 h 1.356 v -7.487 h -1.356 z m -0.24,2.317 c 0,0.495 0.396,0.89 0.919,0.89 0.522,0 0.918,-0.382 0.918,-0.861 0,-0.509 -0.381,-0.904 -0.918,-0.904 -0.523,0 -0.919,0.381 -0.919,0.875" /><g
           transform="translate(413.4395,23.1432)"
           id="g122"><path
             id="path124"
             style="fill:#009fe3;fill-opacity:1;fill-rule:nonzero;stroke:none"
             d="M 0,0 0.565,1.074 C 1.201,0.621 2.218,0.296 3.193,0.296 c 1.258,0 1.78,0.382 1.78,1.017 0,1.681 -4.733,0.226 -4.733,3.208 0,1.341 1.201,2.245 3.123,2.245 0.975,0 2.077,-0.254 2.726,-0.677 L 5.51,5.015 C 4.832,5.452 4.084,5.608 3.349,5.608 2.162,5.608 1.583,5.17 1.583,4.577 1.583,2.811 6.329,4.252 6.329,1.341 6.329,-0.015 5.086,-0.877 3.095,-0.877 1.851,-0.877 0.621,-0.496 0,0" /></g></g></g></g></svg>